<?xml version="1.0" encoding="UTF-8" standalone="no"?>
<svg
   xmlns:dc="http://purl.org/dc/elements/1.1/"
   xmlns:cc="http://creativecommons.org/ns#"
   xmlns:rdf="http://www.w3.org/1999/02/22-rdf-syntax-ns#"
   xmlns:svg="http://www.w3.org/2000/svg"
   xmlns="http://www.w3.org/2000/svg"
   xmlns:sodipodi="http://sodipodi.sourceforge.net/DTD/sodipodi-0.dtd"
   xmlns:inkscape="http://www.inkscape.org/namespaces/inkscape"
   id="Calque_1"
   data-name="Calque 1"
   viewBox="0 0 110 110"
   version="1.1"
   sodipodi:docname="application-platform-white.svg"
   inkscape:version="1.0.1 (c497b03c, 2020-09-10)">
  <style
     id="style416" />
  <metadata
     id="metadata27">
    <rdf:RDF>
      <cc:Work
         rdf:about="">
        <dc:format>image/svg+xml</dc:format>
        <dc:type
           rdf:resource="http://purl.org/dc/dcmitype/StillImage" />
        <dc:title></dc:title>
      </cc:Work>
    </rdf:RDF>
  </metadata>
  <sodipodi:namedview
     pagecolor="#ffffff"
     bordercolor="#666666"
     borderopacity="1"
     objecttolerance="10"
     gridtolerance="10"
     guidetolerance="10"
     inkscape:pageopacity="0"
     inkscape:pageshadow="2"
     inkscape:window-width="1561"
     inkscape:window-height="1080"
     id="namedview25"
     showgrid="false"
     inkscape:snap-page="false"
     inkscape:zoom="6"
     inkscape:cx="40.176993"
     inkscape:cy="58.197279"
     inkscape:window-x="0"
     inkscape:window-y="23"
     inkscape:window-maximized="0"
     inkscape:current-layer="Calque_1"
     inkscape:document-rotation="0" />
  <defs
     id="defs12">
    <style
       id="style10">.cls-1{fill:#fff;}.cls-2{fill:#525ca3;}</style>
  </defs>
  <g
     id="g1504"
     transform="matrix(1.9354689,0,0,2.0116065,-5.89469,-9.0322722)"
     style="fill:#4d4d4d">
    <path
       class="cls-2"
       d="m 31.305944,40.876673 a 1.26,1.26 0 0 1 -0.57,-0.14 l -12.05,-6.1 a 1.26,1.26 0 0 1 -0.68,-1.12 1.24,1.24 0 0 1 0.68,-1.11 l 12.05,-6.17 a 1.25,1.25 0 0 1 1.13,0 l 12.06,6.14 a 1.24,1.24 0 0 1 0.68,1.11 1.26,1.26 0 0 1 -0.68,1.15 l -12.06,6.1 a 1.22,1.22 0 0 1 -0.56,0.14 z m -9.3,-7.39 9.3,4.74 9.29,-4.74 -9.29,-4.73 z"
       id="path1463"
       style="fill:#4d4d4d" />
    <path
       class="cls-2"
       d="m 31.305944,45.806673 a 1.25,1.25 0 0 1 -0.57,-0.13 l -12.05,-6.14 a 1.25,1.25 0 1 1 1.13,-2.23 l 11.49,5.85 11.48,-5.85 a 1.252248,1.252248 0 0 1 1.14,2.23 l -12.06,6.1 a 1.21,1.21 0 0 1 -0.56,0.17 z"
       id="path1465"
       style="fill:#4d4d4d" />
    <path
       class="cls-2"
       d="m 31.305944,50.446673 a 1.25,1.25 0 0 1 -0.57,-0.13 l -12.05,-6.14 a 1.25,1.25 0 0 1 1.13,-2.23 l 11.49,5.85 11.48,-5.85 a 1.252248,1.252248 0 0 1 1.14,2.23 l -12.06,6.14 a 1.21,1.21 0 0 1 -0.56,0.13 z"
       id="path1467"
       style="fill:#4d4d4d" />
    <path
       class="cls-2"
       d="m 55.975944,36.096673 h -7.66 a 1.25,1.25 0 0 1 0,-2.5 h 6.41 v -0.39 a 7.6,7.6 0 0 0 -4.27,-6.85 1.24,1.24 0 0 1 -0.69,-1.2 v -0.28 c 0,-0.11 0,-0.23 0,-0.34 a 9.49,9.49 0 0 0 -17.49,-5.12 1.24,1.24 0 0 1 -1.7,0.38 9.5,9.5 0 0 0 -14.45,8.08 v 0.14 a 1.26,1.26 0 0 1 -1,1.26 9.51,9.51 0 0 0 -6.4899997,4.36 h 5.2899997 a 1.25,1.25 0 0 1 0,2.5 H 6.6359443 a 1.23,1.23 0 0 1 -1,-0.54 1.21,1.21 0 0 1 -0.14,-1.15 12,12 0 0 1 8.1899997,-7.38 12,12 0 0 1 12,-11.15 11.89,11.89 0 0 1 5.24,1.19 12,12 0 0 1 21.41,7.42 10,10 0 0 1 4.92,8.68 v 1.64 a 1.25,1.25 0 0 1 -1.28,1.25 z"
       id="path1469"
       style="fill:#4d4d4d" />
  </g>
</svg>
