<?xml version="1.0" encoding="UTF-8" standalone="no"?>
<svg
   xmlns:dc="http://purl.org/dc/elements/1.1/"
   xmlns:cc="http://creativecommons.org/ns#"
   xmlns:rdf="http://www.w3.org/1999/02/22-rdf-syntax-ns#"
   xmlns:svg="http://www.w3.org/2000/svg"
   xmlns="http://www.w3.org/2000/svg"
   xmlns:sodipodi="http://sodipodi.sourceforge.net/DTD/sodipodi-0.dtd"
   xmlns:inkscape="http://www.inkscape.org/namespaces/inkscape"
   id="Calque_1"
   data-name="Calque 1"
   viewBox="0 0 110 110"
   version="1.1"
   sodipodi:docname="DGBI.svg"
   inkscape:version="1.0.1 (c497b03c, 2020-09-10)">
  <style></style>
  <metadata
     id="metadata27">
    <rdf:RDF>
      <cc:Work
         rdf:about="">
        <dc:format>image/svg+xml</dc:format>
        <dc:type
           rdf:resource="http://purl.org/dc/dcmitype/StillImage" />
        <dc:title></dc:title>
      </cc:Work>
    </rdf:RDF>
  </metadata>
  <sodipodi:namedview
     pagecolor="#ffffff"
     bordercolor="#666666"
     borderopacity="1"
     objecttolerance="10"
     gridtolerance="10"
     guidetolerance="10"
     inkscape:pageopacity="0"
     inkscape:pageshadow="2"
     inkscape:window-width="1561"
     inkscape:window-height="1080"
     id="namedview25"
     showgrid="false"
     inkscape:snap-page="false"
     inkscape:zoom="6"
     inkscape:cx="52.602041"
     inkscape:cy="57.697279"
     inkscape:window-x="0"
     inkscape:window-y="23"
     inkscape:window-maximized="0"
     inkscape:current-layer="Calque_1" />
  <defs
     id="defs12">
    <style
       id="style10">.cls-1{fill:#fff;}.cls-2{fill:#525ca3;}</style>
  </defs>
  <path
     fill-rule="evenodd"
     clip-rule="evenodd"
     d="m 83.974637,15.656216 c -9.5854,-7.2230803 -21.4849,-10.6843793 -33.449004,-9.7296043 -11.9642,0.954774 -23.1641,6.2594643 -31.4826,14.9113043 -0.5569,0.5793 -0.8045,1.3893 -0.6666,2.1809 0.0841,0.4829 0.3054,0.9236 0.6287,1.275 l 0.0059,0.0064 0.033,0.0356 c 0.0265,0.0284 0.0619,0.0658 0.1061,0.1116 0.0885,0.0917 0.2127,0.2173 0.3724,0.3719 0.3194,0.3089 0.7818,0.7343 1.3873,1.2367 1.2103,1.0043 2.997,2.3203 5.3599,3.6292 4.3648,2.418 10.6841,4.8044 18.9259,5.1627 1.091,4.0819 4.8147,7.0881 9.2405,7.0881 5.282,0 9.564004,-4.282 9.564004,-9.564 0,-5.2821 -4.282004,-9.564 -9.564004,-9.564 -4.3909,0 -8.0907,2.9589 -9.2141,6.9915 -7.2661,-0.3485 -12.7647,-2.4531 -16.5079,-4.5268 -1.7901,-0.9916 -3.1814,-1.9779 -4.1719,-2.7648 7.2327,-6.6819 16.5191,-10.76568 26.3846,-11.55298 10.734904,-0.85667 21.411604,2.24897 30.012004,8.72988 8.6005,6.4809 14.5288,15.888 16.6642,26.442999 1.8393,9.0913 0.7551,18.491601 -3.0346,26.875801 -1.3572,-2.0313 -3.3143,-4.5985 -5.9254,-7.1692 -5.3689,-5.285801 -13.5666,-10.637901 -24.9625,-11.266601 -1.0857,-4.0896 -4.813204,-7.1033 -9.244404,-7.1033 -5.2821,0 -9.5641,4.282 -9.5641,9.5641 0,5.282 4.282,9.564001 9.5641,9.564001 4.3843,0 8.079604,-2.9502 9.209004,-6.973601 9.7389,0.6077 16.7525,5.176301 21.4589,9.810001 2.5329,2.4937 4.3794,4.9918 5.5892,6.8622 0.6037,0.9333 1.0453,1.7047 1.3315,2.2333 0.1431,0.2642 0.247,0.4672 0.3127,0.5989 0.0329,0.0658 0.0562,0.1137 0.07,0.1425 l 0.0132,0.0275 8e-4,0.0018 8e-4,0.0018 c 0.3957,0.8521 1.2322,1.4138 2.1708,1.4573 0.94,0.0436 1.826,-0.4397 2.2983,-1.2536 6.023803,-10.3811 8.035903,-22.609301 5.655803,-34.373101 -2.38,-11.763899 -8.987103,-22.248299 -18.572503,-29.471399 z M 49.916433,57.028615 c 0,-2.4962 2.0235,-4.5197 4.5197,-4.5197 2.4961,0 4.5197,2.0235 4.5197,4.5197 0,2.4961 -2.0236,4.5197 -4.5197,4.5197 -2.4962,0 -4.5197,-2.0236 -4.5197,-4.5197 z m 4.5836,-20.135499 c 2.4853,0 4.5,-2.0147 4.5,-4.5 0,-2.4853 -2.0147,-4.5 -4.5,-4.5 -2.4853,0 -4.5,2.0147 -4.5,4.5 0,2.4853 2.0147,4.5 4.5,4.5 z"
     fill="#525ca3"
     id="path31"
     style="fill:#4d4d4d" />
  <path
     fill-rule="evenodd"
     clip-rule="evenodd"
     d="m 18.354633,29.731816 c -3.72972,5.3872 -6.17492,11.484 -7.23289,17.830499 5.74019,0.4605 9.95069,2.517 13.18849,5.5313 3.5796,3.3325 5.8087,7.7019 7.7089,11.648101 0.1887,0.3919 0.3739,0.7788 0.5566,1.1604 l 6e-4,0.0012 c 1.7351,3.6248 3.2413,6.7711 5.3407,9.1666 1.7991,2.0528 4.0251,3.5279 7.328,3.9616 1.1502,-3.9911 4.8297,-6.9104 9.1911,-6.9104 5.282,0 9.564004,4.282 9.564004,9.564 0,5.2821 -4.282004,9.5641 -9.564004,9.5641 -4.4475,0 -8.1859,-3.0357 -9.2563,-7.1481 -4.8918,-0.4922 -8.3852,-2.6586 -11.0564,-5.7065 -2.5884,-2.9534 -4.4043,-6.7611 -6.0739,-10.262 l -5e-4,-0.0011 c -0.1932,-0.4051 -0.3845,-0.8062 -0.5747,-1.2013 -1.9159,-3.9785 -3.7967,-7.533601 -6.6012,-10.144601 -2.3783,-2.2141 -5.5445,-3.854 -10.2947,-4.2062 -0.15967,3.1557 0.01961,6.3424 0.5499,9.5062 1.8964,11.314101 8.1321,21.441901 17.3808,28.229201 9.2486,6.7874 20.7804,9.698604 32.142504,8.1145 11.362,-1.5842 21.6577,-7.5387 28.6971,-16.5969 l 3.983,3.0953 c -7.8456,10.0956 -19.3204,16.732004 -31.9836,18.497504 -12.663204,1.7656 -25.515604,-1.479 -35.823504,-9.043604 -10.3078,-7.5647 -17.2576303,-18.8524 -19.3712103,-31.4622 -2.113571,-12.609801 0.7759,-25.5467 8.0538103,-36.0589 z m 36.0815,47.4336 c -2.4962,0 -4.5197,2.0236 -4.5197,4.5197 0,2.4962 2.0235,4.5197 4.5197,4.5197 2.4961,0 4.5197,-2.0235 4.5197,-4.5197 0,-2.4961 -2.0236,-4.5197 -4.5197,-4.5197 z"
     fill="#525ca3"
     id="path33"
     style="fill:#4d4d4d" />
</svg>
