<?xml version="1.0" encoding="UTF-8" standalone="no"?>
<svg
   xmlns:dc="http://purl.org/dc/elements/1.1/"
   xmlns:cc="http://creativecommons.org/ns#"
   xmlns:rdf="http://www.w3.org/1999/02/22-rdf-syntax-ns#"
   xmlns:svg="http://www.w3.org/2000/svg"
   xmlns="http://www.w3.org/2000/svg"
   xmlns:sodipodi="http://sodipodi.sourceforge.net/DTD/sodipodi-0.dtd"
   xmlns:inkscape="http://www.inkscape.org/namespaces/inkscape"
   id="Calque_1"
   data-name="Calque 1"
   viewBox="0 0 110 110"
   version="1.1"
   sodipodi:docname="data-platform-white.svg"
   inkscape:version="1.0.1 (c497b03c, 2020-09-10)">
  <style
     id="style416" />
  <metadata
     id="metadata27">
    <rdf:RDF>
      <cc:Work
         rdf:about="">
        <dc:format>image/svg+xml</dc:format>
        <dc:type
           rdf:resource="http://purl.org/dc/dcmitype/StillImage" />
        <dc:title></dc:title>
      </cc:Work>
    </rdf:RDF>
  </metadata>
  <sodipodi:namedview
     pagecolor="#ffffff"
     bordercolor="#666666"
     borderopacity="1"
     objecttolerance="10"
     gridtolerance="10"
     guidetolerance="10"
     inkscape:pageopacity="0"
     inkscape:pageshadow="2"
     inkscape:window-width="1561"
     inkscape:window-height="1080"
     id="namedview25"
     showgrid="false"
     inkscape:snap-page="false"
     inkscape:zoom="6"
     inkscape:cx="34.010327"
     inkscape:cy="49.197279"
     inkscape:window-x="0"
     inkscape:window-y="23"
     inkscape:window-maximized="0"
     inkscape:current-layer="Calque_1"
     inkscape:document-rotation="0" />
  <defs
     id="defs12">
    <style
       id="style10">.cls-1{fill:#fff;}.cls-2{fill:#525ca3;}</style>
  </defs>
  <g
     id="g1892"
     transform="matrix(1.3060482,0,0,1.3656097,-16.823579,-21.57863)"
     style="fill:#4d4d4d">
    <path
       class="cls-2"
       d="m 55.250002,48.227779 c -7.570371,0 -15.62963,2.740741 -15.62963,7.822222 v 22.785186 a 1.8666667,1.8666667 0 0 0 0.355556,1.051852 c 1.644444,3.925926 8.637037,6.029629 15.274074,6.029629 6.637037,0 13.62963,-2.103703 15.274074,-6.029629 a 1.8666667,1.8666667 0 0 0 0.355556,-1.051852 V 56.050001 c 0,-5.081481 -8.05926,-7.822222 -15.62963,-7.822222 z m 11.851852,21.985185 c 0,1.644445 -4.755556,4.118519 -11.851852,4.118519 -7.096296,0 -11.851852,-2.474074 -11.851852,-4.118519 v -1.481481 a 25.274074,25.274074 0 0 0 11.851852,2.666667 25.274074,25.274074 0 0 0 11.851852,-2.666667 z m 0,-6.637037 c 0,1.644445 -4.755556,4.133334 -11.851852,4.133334 -7.096296,0 -11.851852,-2.488889 -11.851852,-4.133334 v -2.4 a 25.274074,25.274074 0 0 0 11.851852,2.666667 25.274074,25.274074 0 0 0 11.851852,-2.666667 z M 55.250002,51.931483 c 7.17037,0 11.851852,2.474074 11.851852,4.118518 0,1.644445 -4.755556,4.133334 -11.851852,4.133334 -7.096296,0 -11.851852,-2.488889 -11.851852,-4.133334 0,-1.644444 4.681481,-4.118518 11.851852,-4.118518 z m 0,30.281482 c -7.170371,0 -11.851852,-2.474075 -11.851852,-4.118519 v -2.711111 a 25.451852,25.451852 0 0 0 11.851852,2.651852 25.451852,25.451852 0 0 0 11.851852,-2.651852 v 2.711111 c 0.07407,1.644444 -4.681482,4.118519 -11.851852,4.118519 z"
       id="path1778"
       style="fill:#4d4d4d;stroke-width:1.48148" />
    <path
       class="cls-2"
       d="M 91.798151,63.33889 H 75.753706 a 1.851852,1.851852 0 0 1 0,-3.703704 H 89.946299 V 59.057409 A 11.244445,11.244445 0 0 0 83.635187,48.90926 1.8518519,1.8518519 0 0 1 82.59815,47.131483 v -0.414815 a 2.962963,2.962963 0 0 0 0,-0.503704 14.059259,14.059259 0 0 0 -25.866667,-7.585185 1.8518519,1.8518519 0 0 1 -2.533333,0.562963 14.059259,14.059259 0 0 0 -21.451852,11.97037 v 0.207408 a 1.8814815,1.8814815 0 0 1 -1.555556,1.866666 14.059259,14.059259 0 0 0 -9.511111,6.45926 h 13.703704 a 1.8518519,1.8518519 0 0 1 0,3.703703 H 18.701853 A 1.8518519,1.8518519 0 0 1 16.96852,60.894446 17.777778,17.777778 0 0 1 29.116668,49.961112 17.777778,17.777778 0 0 1 54.657409,35.205557 a 17.777778,17.777778 0 0 1 31.703704,10.992592 14.903704,14.903704 0 0 1 7.274075,12.85926 v 2.429629 a 1.8518519,1.8518519 0 0 1 -1.837037,1.851852 z"
       id="path1780"
       style="fill:#4d4d4d;stroke-width:1.48148" />
  </g>
</svg>
