<?xml version="1.0" encoding="UTF-8" standalone="no"?>
<svg
   xmlns:dc="http://purl.org/dc/elements/1.1/"
   xmlns:cc="http://creativecommons.org/ns#"
   xmlns:rdf="http://www.w3.org/1999/02/22-rdf-syntax-ns#"
   xmlns:svg="http://www.w3.org/2000/svg"
   xmlns="http://www.w3.org/2000/svg"
   xmlns:sodipodi="http://sodipodi.sourceforge.net/DTD/sodipodi-0.dtd"
   xmlns:inkscape="http://www.inkscape.org/namespaces/inkscape"
   id="Calque_1"
   data-name="Calque 1"
   viewBox="0 0 110 110"
   version="1.1"
   sodipodi:docname="Energy.svg"
   inkscape:version="1.0.1 (c497b03c, 2020-09-10)">
  <style
     id="style416" />
  <metadata
     id="metadata27">
    <rdf:RDF>
      <cc:Work
         rdf:about="">
        <dc:format>image/svg+xml</dc:format>
        <dc:type
           rdf:resource="http://purl.org/dc/dcmitype/StillImage" />
        <dc:title></dc:title>
      </cc:Work>
    </rdf:RDF>
  </metadata>
  <sodipodi:namedview
     pagecolor="#ffffff"
     bordercolor="#666666"
     borderopacity="1"
     objecttolerance="10"
     gridtolerance="10"
     guidetolerance="10"
     inkscape:pageopacity="0"
     inkscape:pageshadow="2"
     inkscape:window-width="1561"
     inkscape:window-height="1080"
     id="namedview25"
     showgrid="false"
     inkscape:snap-page="false"
     inkscape:zoom="6"
     inkscape:cx="40.176993"
     inkscape:cy="58.197279"
     inkscape:window-x="0"
     inkscape:window-y="23"
     inkscape:window-maximized="0"
     inkscape:current-layer="Calque_1"
     inkscape:document-rotation="0" />
  <defs
     id="defs12">
    <style
       id="style10">.cls-1{fill:#fff;}.cls-2{fill:#525ca3;}</style>
  </defs>
  <g
     id="g1618"
     transform="matrix(1.2376189,0,0,1.1082596,4.1388623,-0.57964434)"
     style="fill:#4d4d4d">
    <path
       d="m 71.343357,57.866801 c -0.5967,0.0098 -1.1856,0.1372 -1.733,0.3748 -0.5475,0.2376 -1.0427,0.5808 -1.4573,1.01 v 0 c 0,0 -2.1911,2.1561 -4.54,4.505 -2.3489,2.3489 -4.838,4.8205 -5.5743,5.6268 -0.1449,0.1542 -0.2569,0.3363 -0.3293,0.5352 -0.0723,0.1989 -0.1034,0.4104 -0.0914,0.6217 0.01,0.2098 0.0613,0.4156 0.1516,0.6052 0.0903,0.1896 0.2176,0.3593 0.3743,0.4991 0.3195,0.2781 0.7338,0.4225 1.1569,0.4032 0.2098,-0.0097 0.4156,-0.0613 0.6052,-0.1516 0.1897,-0.0903 0.3594,-0.2175 0.4992,-0.3743 0.5083,-0.5434 3.0851,-3.1377 5.4515,-5.5041 l 4.5575,-4.5575 c 0.1114,-0.1332 0.2509,-0.2399 0.4086,-0.3127 0.1576,-0.0727 0.3293,-0.1096 0.5029,-0.108 0.4234,0.0444 0.8126,0.2526 1.0845,0.5801 0.2718,0.3276 0.4048,0.7485 0.3704,1.1728 10e-4,0.4282 -0.1337,0.8457 -0.3856,1.192 v 0 c 0,0 -9.6059,11.534 -15.7761,18.7385 -0.8384,1.1797 -1.9298,2.1571 -3.1945,2.8607 -1.2647,0.7036 -2.6707,1.1157 -4.1151,1.206 h -18.8963 c -1.0556,-0.0717 -2.1149,0.0665 -3.1167,0.4065 -1.0019,0.3399 -1.9265,0.875 -2.7205,1.5743 l -4.5049,4.4173 c -0.1489,0.1482 -0.2671,0.3244 -0.3478,0.5184 -0.0806,0.194 -0.122102,0.4021 -0.122102,0.6122 0,0.2101 0.0415,0.4182 0.122102,0.6122 0.0807,0.194 0.1989,0.3702 0.3478,0.5184 0.1465,0.1539 0.3235,0.2755 0.5197,0.357 0.1962,0.0815 0.4073,0.1211 0.6197,0.1163 0.2118,7e-4 0.4217,-0.0407 0.6173,-0.122 0.1956,-0.0813 0.3731,-0.2007 0.5221,-0.3513 l 4.5049,-4.4173 c 0.478,-0.4121 1.0366,-0.72 1.6402,-0.9041 0.6036,-0.1841 1.239,-0.2404 1.8656,-0.1651 h 18.9489 c 1.8997,-0.0751 3.7595,-0.568 5.4471,-1.4436 1.6875,-0.8756 3.1613,-2.1124 4.3165,-3.6223 6.2053,-7.2746 15.7762,-18.8262 15.7762,-18.8262 0.6673,-0.8961 1.0243,-1.9854 1.0167,-3.1026 0.0426,-1.2728 -0.4201,-2.5108 -1.2872,-3.4435 -0.867,-0.9328 -2.068,-1.4845 -3.3405,-1.5348 z m -42.0697,11.8672 c -3.4449,-0.2409 -6.8646,0.7397 -9.658502,2.7696 l -11.5866003,9.5182 c -0.1721,0.1299 -0.316,0.2933 -0.4232,0.4803 -0.1071,0.1871 -0.1752,0.3939 -0.2002,0.608 -0.025,0.2141 -0.0063,0.4311 0.0549,0.6378 0.0612,0.2067 0.1637,0.3988 0.3012,0.5648 0.1375,0.166 0.3073,0.3024 0.499,0.4009 0.1917,0.0986 0.4014,0.1572 0.6164,0.1725 0.215,0.0152 0.4309,-0.0132 0.6346,-0.0837 0.2037,-0.0706 0.391,-0.1816 0.5506003,-0.3265 l 11.604202,-9.5008 c 2.2311,-1.5525 4.9341,-2.2778 7.6427,-2.0509 h 23.4538 c 0.1491,0.4431 0.2028,0.9127 0.1574,1.3779 -0.0453,0.4653 -0.1885,0.9157 -0.4203,1.3216 -0.2086,0.4522 -0.523,0.8476 -0.9165,1.1527 -0.3936,0.3051 -0.8549,0.511 -1.3448,0.6002 h -0.1577 -15.2328 c -0.425,-0.0041 -0.8344,0.1596 -1.1393,0.4558 -0.2907,0.3099 -0.4588,0.7148 -0.4733,1.1394 -7e-4,0.2118 0.0407,0.4216 0.122,0.6173 0.0813,0.1956 0.2007,0.3731 0.3513,0.522 0.1486,0.1499 0.3264,0.2677 0.5224,0.3461 0.196,0.0784 0.406,0.1157 0.6169,0.1097 h 15.2152 c 1.1217,-0.0135 2.2153,-0.3518 3.1486,-0.974 0.9333,-0.6223 1.6663,-1.5017 2.1101,-2.5318 0.626,-1.0184 0.9426,-2.1966 0.9115,-3.3916 -0.0311,-1.1949 -0.4087,-2.3551 -1.0868,-3.3395 -0.1441,-0.2002 -0.3336,-0.3634 -0.553,-0.4761 -0.2194,-0.1128 -0.4624,-0.1719 -0.709,-0.1725 z"
       fill="#525ca3"
       id="path1580"
       style="fill:#4d4d4d" />
    <path
       fill-rule="evenodd"
       clip-rule="evenodd"
       d="m 70.723557,58.185901 c -0.3464,0.057 -0.6851,0.1565 -1.0085,0.2969 -0.5158,0.2239 -0.9823,0.5472 -1.3729,0.9515 l -0.1891,-0.1827 0.1844,0.1875 -0.3788,0.3733 c -0.2421,0.2388 -0.5893,0.5816 -1.0098,0.9978 -0.8412,0.8324 -1.9759,1.9583 -3.1499,3.1323 -0.3976,0.3976 -0.7989,0.7984 -1.1948,1.1938 -1.9472,1.9448 -3.7638,3.7591 -4.3712,4.4244 l -0.003,0.0028 c -0.1205,0.1282 -0.2136,0.2796 -0.2737,0.445 -0.0602,0.1653 -0.086,0.3412 -0.0761,0.5169 l 2e-4,0.0027 c 0.008,0.1749 0.051,0.3463 0.1263,0.5044 0.075,0.1575 0.1807,0.2986 0.3107,0.4149 0.2684,0.233 0.6161,0.3539 0.9711,0.3377 0.1748,-0.0081 0.3462,-0.051 0.5042,-0.1262 0.158,-0.0753 0.2994,-0.1813 0.4159,-0.312 l 0.004,-0.0046 c 0.5122,-0.5476 3.0934,-3.1461 5.4577,-5.5104 l 4.5497,-4.5497 c 0.135,-0.1586 0.3029,-0.286 0.4921,-0.3733 0.1929,-0.089 0.4031,-0.1342 0.6156,-0.1322 l 0.0125,10e-5 0.0124,0.0013 c 0.4917,0.0515 0.9437,0.2933 1.2594,0.6737 0.3133,0.3776 0.4678,0.8619 0.4311,1.3509 -8e-4,0.4802 -0.1534,0.9479 -0.436,1.3364 l -0.2126,-0.1546 0.2019,0.1684 -0.4248,0.5096 c -0.2747,0.3295 -0.6741,0.8083 -1.1726,1.4053 -0.9971,1.194 -2.3907,2.861 -3.9772,4.7532 -3.1703,3.7811 -7.1111,8.4619 -10.196,12.0641 -0.8602,1.2072 -1.9786,2.2076 -3.2741,2.9284 -1.2989,0.7226 -2.743,1.1458 -4.2265,1.2386 l -0.0164,0.0011 -18.9141,-6e-4 c -1.021,-0.0693 -2.0454,0.0638 -3.0144,0.3926 -0.9668,0.328 -1.8592,0.8439 -2.6259,1.518 l -4.4985,4.411 c -0.1241,0.1236 -0.2232,0.2712 -0.2905,0.4329 -0.0673,0.1621 -0.102,0.3358 -0.102,0.5113 0,0.1755 0.0347,0.3493 0.102,0.5113 0.0674,0.162 0.1661,0.3092 0.2905,0.433 l 0.005,0.005 c 0.1212,0.1274 0.2677,0.2281 0.43,0.2955 0.1624,0.0675 0.3371,0.1003 0.5129,0.0963 l 0.007,-2e-4 c 0.1769,6e-4 0.3521,-0.0339 0.5155,-0.1018 0.1634,-0.0679 0.3116,-0.1676 0.436,-0.2934 l 0.003,-0.0028 4.5171,-4.4291 c 0.5056,-0.436 1.0969,-0.7613 1.7355,-0.9561 0.6335,-0.1932 1.3001,-0.2533 1.9578,-0.1766 h 18.9281 c 1.8593,-0.0742 3.6795,-0.5569 5.3313,-1.414 1.6532,-0.8578 3.0971,-2.0694 4.2288,-3.5487 l 0.009,-0.0111 c 3.1017,-3.6361 7.0452,-8.3415 10.2135,-12.1386 1.584,-1.8985 2.9742,-3.5696 3.9683,-4.7661 0.4971,-0.5983 0.8952,-1.0779 1.1689,-1.4079 v -4.164 c 0.6307,-0.8492 1.3867,1.7783 1.3795,0.7205 v -0.0106 c 0.0403,-1.2034 -0.397,-2.3738 -1.2168,-3.2557 -0.8197,-0.8819 -1.9552,-1.4035 -3.1583,-1.451 l -0.5427,-0.0215 z m -49.5107,37.9994 h -0.003 l 9e-4,-0.263 0.006,0.2629 z m 32.6722,-26.7668 c 0.2883,7e-4 0.5722,0.0698 0.8286,0.2015 0.2564,0.1318 0.4778,0.3224 0.6462,0.5563 l 0.003,0.0045 c 0.707,1.0263 1.1006,2.236 1.1331,3.4819 0.0322,1.2395 -0.2944,2.4618 -0.9404,3.5199 -0.4647,1.0693 -1.2279,1.9822 -2.1982,2.629 -0.9756,0.6504 -2.1189,1.0041 -3.2913,1.0182 h -0.003 -15.2115 c -0.2457,0.0065 -0.4901,-0.0372 -0.7183,-0.1285 -0.229,-0.0916 -0.4368,-0.2291 -0.6105,-0.4041 -0.175,-0.1733 -0.3138,-0.3798 -0.4083,-0.6073 -0.0947,-0.2278 -0.143,-0.4723 -0.1422,-0.719 l 1e-4,-0.0081 c 0.0166,-0.4883 0.2101,-0.9539 0.5444,-1.3103 l 0.008,-0.0089 c 0.3543,-0.3442 0.8302,-0.5344 1.3241,-0.5299 h 15.3648 c -0.008,0.0014 -0.0152,0.0029 -0.0228,0.0043 l 0.0471,0.2586 v -0.2629 h -0.0243 c 0.4399,-0.0839 0.8539,-0.2706 1.208,-0.5451 0.3602,-0.2793 0.6479,-0.6411 0.8388,-1.055 l 0.01,-0.0207 c 0.2134,-0.3738 0.3461,-0.7879 0.3878,-1.2163 0.0357,-0.3661 0.005,-0.7352 -0.0907,-1.0894 h 0.195 v -0.2629 l -0.2492,0.0838 c 0.0199,0.0592 0.038,0.1189 0.0542,0.1791 h -23.2809 c -2.6442,-0.2215 -5.2828,0.4844 -7.462,1.9979 l 0.008,-0.0065 -0.1666,-0.2034 0.1502,0.2158 0.008,-0.0059 -11.591202,9.4901 0.0052,-0.0047 -0.1768,-0.1946 0.1666,0.2034 0.005,-0.0041 c -0.1848,0.1665 -0.4011003,0.2943 -0.6362003,0.3756 -0.2373,0.0822 -0.4887,0.1153 -0.7392,0.0976 -0.2505,-0.0178 -0.4947,-0.0861 -0.718,-0.2009 -0.2234,-0.1148 -0.4211,-0.2737 -0.5813,-0.4671 -0.1602,-0.1933 -0.2795,-0.4171 -0.3508,-0.6579 -0.0713,-0.2407 -0.0931,-0.4934 -0.064,-0.7428 0.0291,-0.2495 0.1085,-0.4904 0.2333,-0.7083 0.1238,-0.2162 0.2899,-0.4053 0.4884,-0.556 l -0.0041,0.0032 0.1669,0.2032 -0.1584,-0.2098 -0.0044,0.0034 11.5947003,-9.5249 c 2.841302,-2.0643 6.318802,-3.0622 9.822202,-2.8195 h -0.009 l 5e-4,0.263 0.0184,-0.2623 -0.01,-7e-4 z m -0.001,0.5258 -24.6285,0.0527 c -3.3807,-0.2364 -6.7365,0.7243 -9.4792,2.7147 l -11.5890023,9.5202 c -0.1437,0.1084 -0.264,0.2447 -0.3535,0.4009 -0.0895,0.1562 -0.1464,0.329 -0.1673,0.5078 -0.0208,0.1788 -0.0052,0.36 0.0459,0.5326 0.0511,0.1726 0.1367,0.3331 0.2515,0.4717 0.1149,0.1387 0.2567,0.2526 0.4168,0.3349 0.1601,0.0823 0.3352,0.1313 0.5148,0.144 0.1796,0.0128 0.3599,-0.011 0.53,-0.0699 0.1701,-0.0589 0.3266,-0.1516 0.4599,-0.2727 l 0.0099,-0.009 11.6204023,-9.5135 c 2.2783,-1.5854 5.0383,-2.3265 7.8042,-2.0974 h 23.6318 l 0.0603,0.1791 c 0.1609,0.4782 0.2188,0.985 0.1699,1.4872 -0.0485,0.4984 -0.2012,0.981 -0.4481,1.4166 -0.2262,0.4862 -0.5654,0.9114 -0.9894,1.24 -0.4269,0.3309 -0.9272,0.5543 -1.4587,0.6511 l -0.0233,0.0043 h -15.4143 -0.002 c -0.3537,-0.0035 -0.6945,0.132 -0.9493,0.3772 -0.2435,0.2618 -0.3847,0.6025 -0.3979,0.9599 -10e-5,0.1755 0.0346,0.3494 0.1019,0.5115 0.0679,0.1634 0.1676,0.3116 0.2934,0.436 l 0.002,0.0018 c 0.1233,0.1243 0.2708,0.2221 0.4333,0.2871 0.1626,0.065 0.3368,0.096 0.5118,0.091 l 0.008,-2e-4 15.2136,1e-4 c 1.0702,-0.0132 2.1138,-0.3362 3.0044,-0.9299 0.891,-0.594 1.5907,-1.4336 2.0145,-2.417 l 0.007,-0.0175 0.01,-0.0162 c 0.5993,-0.975 0.9025,-2.103 0.8727,-3.247 -0.0298,-1.1431 -0.3907,-2.253 -1.0389,-3.1949 -0.1196,-0.1655 -0.2766,-0.3004 -0.4583,-0.3938 -0.1822,-0.0936 -0.3846,-0.1428 -0.5895,-0.1434 z"
       fill="#525ca3"
       id="path1582"
       style="fill:#4d4d4d" />
    <path
       fill-rule="evenodd"
       clip-rule="evenodd"
       d="m 43.033957,12.0763 -11.6828,23.476101 h 7.2129 c 0.0239,0 0.0477,4e-4 0.0716,0.0012 0.8368,0.0273 1.6311,0.3756 2.2182,0.9726 0.5871,0.5971 0.922,1.3971 0.9353,2.2343 l 2e-4,0.0348 v 14.6894 l 11.2287,-24.8517 -6.6653,0.2045 c -0.002,0 -0.004,10e-5 -0.006,2e-4 -0.4332,0.0142 -0.8647,-0.0595 -1.2687,-0.2168 -0.4058,-0.1579 -0.7751,-0.3968 -1.0856,-0.7021 -0.3105,-0.3053 -0.5555,-0.6706 -0.7202,-1.0737 -0.1616,-0.3952 -0.2426,-0.8188 -0.2383,-1.2457 z m -13.7185,27.858301 c -0.533,0.0157 -1.0615,-0.1054 -1.535,-0.3524 -0.4961,-0.2588 -0.9135,-0.6462 -1.2084,-1.1217 -0.295,-0.4756 -0.4566,-1.0217 -0.468,-1.5811 -0.0114,-0.5594 0.1278,-1.1116 0.4031,-1.5988 0.0786,-0.139 0.1711,-0.2673 0.2752,-0.3836 L 41.370257,5.58318 c 0.3177,-0.63749 0.84,-1.1513299 1.4829,-1.4578699 0.6429,-0.30655 1.3699,-0.38914 2.0651,-0.23464 0.6953,0.15451 1.3189,0.53723 1.7715,1.0872099 0.4525,0.55 0.708,1.2356 0.7258,1.94761 4e-4,0.01819 6e-4,0.0364 6e-4,0.0546 v 17.440411 l 7.3652,-0.2259 0.0317,-7e-4 c 0.5259,-0.0085 1.0457,0.1124 1.5139,0.3521 0.4681,0.2397 0.8701,0.5908 1.1706,1.0224 0.3005,0.4316 0.4903,0.9305 0.5526,1.4528 0.0623,0.5222 -0.005,1.0517 -0.1952,1.5419 -0.0142,0.0366 -0.0294,0.0728 -0.0456,0.1086 l -14.3005,31.6504 c -8e-4,0.0017 -0.002,0.0034 -0.002,0.005 -0.3021,0.6719 -0.8274,1.2185 -1.4869,1.5471 -0.6611,0.3294 -1.416,0.4192 -2.1359,0.254 -0.7199,-0.1651 -1.3602,-0.5749 -1.8117,-1.1594 -0.4429,-0.5734 -0.6771,-1.2802 -0.6649,-2.0037 v -19.0305 z m 18.1006,-14.303 c 0,0.007 -1e-4,0.0139 -2e-4,0.0209 z m -1.2151,-1.1738 c 0.003,-10e-5 0.006,-2e-4 0.009,-3e-4 z"
       fill="#525ca3"
       id="path1584"
       style="fill:#4d4d4d" />
  </g>
</svg>
