<?xml version="1.0" encoding="UTF-8" standalone="no"?>
<svg
   xmlns:dc="http://purl.org/dc/elements/1.1/"
   xmlns:cc="http://creativecommons.org/ns#"
   xmlns:rdf="http://www.w3.org/1999/02/22-rdf-syntax-ns#"
   xmlns:svg="http://www.w3.org/2000/svg"
   xmlns="http://www.w3.org/2000/svg"
   xmlns:sodipodi="http://sodipodi.sourceforge.net/DTD/sodipodi-0.dtd"
   xmlns:inkscape="http://www.inkscape.org/namespaces/inkscape"
   id="Calque_1"
   data-name="Calque 1"
   viewBox="0 0 110 110"
   version="1.1"
   sodipodi:docname="eOEE.svg"
   inkscape:version="1.0.1 (c497b03c, 2020-09-10)">
  <style></style>
  <metadata
     id="metadata27">
    <rdf:RDF>
      <cc:Work
         rdf:about="">
        <dc:format>image/svg+xml</dc:format>
        <dc:type
           rdf:resource="http://purl.org/dc/dcmitype/StillImage" />
        <dc:title></dc:title>
      </cc:Work>
    </rdf:RDF>
  </metadata>
  <sodipodi:namedview
     pagecolor="#ffffff"
     bordercolor="#666666"
     borderopacity="1"
     objecttolerance="10"
     gridtolerance="10"
     guidetolerance="10"
     inkscape:pageopacity="0"
     inkscape:pageshadow="2"
     inkscape:window-width="1561"
     inkscape:window-height="1080"
     id="namedview25"
     showgrid="false"
     inkscape:snap-page="false"
     inkscape:zoom="6"
     inkscape:cx="52.602041"
     inkscape:cy="57.697279"
     inkscape:window-x="0"
     inkscape:window-y="23"
     inkscape:window-maximized="0"
     inkscape:current-layer="Calque_1" />
  <defs
     id="defs12">
    <style
       id="style10">.cls-1{fill:#fff;}.cls-2{fill:#525ca3;}</style>
  </defs>
  <path
     fill-rule="evenodd"
     clip-rule="evenodd"
     d="m 54.994949,71.809377 c -1.662451,0 -3.010129,1.402838 -3.010129,3.133333 0,1.730496 1.347678,3.133334 3.010129,3.133334 1.66245,0 3.010128,-1.402838 3.010128,-3.133334 0,-1.730495 -1.347678,-3.133333 -3.010128,-3.133333 z m -8.060694,3.133333 c 0,-4.633976 3.608929,-8.390619 8.060694,-8.390619 4.451872,0 8.060693,3.756643 8.060693,8.390619 0,4.634089 -3.608821,8.39062 -8.060693,8.39062 -4.451765,0 -8.060694,-3.756531 -8.060694,-8.39062 z"
     fill="#525ca3"
     id="path275"
     style="stroke-width:1.09683;fill:#4d4d4d" />
  <path
     fill-rule="evenodd"
     clip-rule="evenodd"
     d="m 70.135464,37.097862 c 1.29027,0.551019 1.907131,2.086577 1.377779,3.429657 L 59.593887,70.76732 c -0.529352,1.343081 -2.00453,1.98519 -3.2948,1.434171 -1.29027,-0.551131 -1.907132,-2.086576 -1.377779,-3.429769 l 11.919356,-30.2398 c 0.529352,-1.343081 2.00453,-1.985191 3.2948,-1.43406 z"
     fill="#525ca3"
     id="path277"
     style="stroke-width:1.09683;fill:#4d4d4d" />
  <path
     fill-rule="evenodd"
     clip-rule="evenodd"
     d="m 54.914213,21.192391 c 1.394657,0 2.525282,1.176902 2.525282,2.628643 V 35.70241 c 0,1.451852 -1.130625,2.628643 -2.525282,2.628643 -1.394657,0 -2.525283,-1.176791 -2.525283,-2.628643 V 23.821034 c 0,-1.451741 1.130626,-2.628643 2.525283,-2.628643 z"
     fill="#525ca3"
     id="path279"
     style="stroke-width:1.09683;fill:#4d4d4d" />
  <path
     fill-rule="evenodd"
     clip-rule="evenodd"
     d="m 18.158505,36.766736 c 0.986247,-1.026502 2.585163,-1.026502 3.571303,0 l 8.060693,8.390619 c 0.98614,1.026615 0.98614,2.690974 0,3.717477 -0.986139,1.026502 -2.585055,1.026502 -3.571302,0 l -8.060694,-8.39062 c -0.986139,-1.026502 -0.986139,-2.690862 0,-3.717476 z"
     fill="#525ca3"
     id="path281"
     style="stroke-width:1.09683;fill:#4d4d4d" />
  <path
     fill-rule="evenodd"
     clip-rule="evenodd"
     d="m 54.914213,21.192391 c 1.394657,0 2.525282,1.176902 2.525282,2.628643 V 35.70241 c 0,1.451852 -1.130625,2.628643 -2.525282,2.628643 -1.394657,0 -2.525283,-1.176791 -2.525283,-2.628643 V 23.821034 c 0,-1.451741 1.130626,-2.628643 2.525283,-2.628643 z"
     fill="#525ca3"
     id="path283"
     style="stroke-width:1.09683;fill:#4d4d4d" />
  <path
     fill-rule="evenodd"
     clip-rule="evenodd"
     d="m 92.084675,37.409517 c 0.968723,1.044407 0.940772,2.708543 -0.06257,3.716917 l -8.20217,8.243352 c -1.00334,1.008374 -2.601933,0.979167 -3.570657,-0.06524 -0.968724,-1.044407 -0.940665,-2.708431 0.06257,-3.716805 l 8.202169,-8.243464 c 1.003341,-1.008374 2.601934,-0.979167 3.570658,0.06524 z"
     fill="#525ca3"
     id="path285"
     style="stroke-width:1.09683;fill:#4d4d4d" />
  <path
     fill-rule="evenodd"
     clip-rule="evenodd"
     d="m 90.895244,34.598357 c 9.932786,9.278024 16.463796,23.079239 16.463796,41.141227 0,1.451741 -1.13063,2.628643 -2.52529,2.628643 H 85.64171 c -1.333487,0 -2.437236,-1.079321 -2.520337,-2.464702 -0.75264,-12.534005 -7.870518,-20.83857 -11.086303,-23.272946 -1.127938,-0.853945 -1.377241,-2.497938 -0.556981,-3.671931 0.82026,-1.174105 2.399717,-1.433724 3.527548,-0.57989 3.947675,2.988528 11.362374,11.712624 12.934091,24.732183 H 102.25794 C 101.66291,57.794425 95.868514,46.307401 87.522073,38.511219 78.66004,30.2334 66.777666,25.98751 54.820576,25.924619 42.863916,25.861729 30.992295,29.982062 22.14112,38.218812 13.797905,45.982653 7.9940977,57.53447 7.4072301,73.110941 H 20.652719 C 21.189167,67.487391 23.060714,60.084779 27.99367,53.71751 33.803,46.219108 43.580542,40.515881 59.378878,40.515881 c 1.394657,0 2.525283,1.176903 2.525283,2.628643 0,1.451741 -1.130626,2.628643 -2.525283,2.628643 -14.505056,0 -22.741089,5.161719 -27.453768,11.244638 -4.80212,6.198293 -6.228706,13.721091 -6.386307,18.806491 -0.04386,1.418057 -1.160942,2.543931 -2.523886,2.543931 H 4.8329039 c -1.3946677,0 -2.5252719,-1.176902 -2.5252719,-2.628643 0,-18.31299 6.5230663,-32.186384 16.467412,-41.440236 9.898915,-9.211664 23.027587,-13.7005 36.071011,-13.631903 13.043208,0.0686 26.161025,4.694629 36.049189,13.930912 z"
     fill="#525ca3"
     id="path287"
     style="stroke-width:1.09683;fill:#4d4d4d" />
</svg>
