<?xml version="1.0" encoding="UTF-8" standalone="no"?>
<svg
   xmlns:dc="http://purl.org/dc/elements/1.1/"
   xmlns:cc="http://creativecommons.org/ns#"
   xmlns:rdf="http://www.w3.org/1999/02/22-rdf-syntax-ns#"
   xmlns:svg="http://www.w3.org/2000/svg"
   xmlns="http://www.w3.org/2000/svg"
   xmlns:sodipodi="http://sodipodi.sourceforge.net/DTD/sodipodi-0.dtd"
   xmlns:inkscape="http://www.inkscape.org/namespaces/inkscape"
   id="Calque_1"
   data-name="Calque 1"
   viewBox="0 0 110 110"
   version="1.1"
   sodipodi:docname="FaCT.svg"
   inkscape:version="1.0.1 (c497b03c, 2020-09-10)">
  <style></style>
  <metadata
     id="metadata27">
    <rdf:RDF>
      <cc:Work
         rdf:about="">
        <dc:format>image/svg+xml</dc:format>
        <dc:type
           rdf:resource="http://purl.org/dc/dcmitype/StillImage" />
        <dc:title></dc:title>
      </cc:Work>
    </rdf:RDF>
  </metadata>
  <sodipodi:namedview
     pagecolor="#ffffff"
     bordercolor="#666666"
     borderopacity="1"
     objecttolerance="10"
     gridtolerance="10"
     guidetolerance="10"
     inkscape:pageopacity="0"
     inkscape:pageshadow="2"
     inkscape:window-width="1561"
     inkscape:window-height="1080"
     id="namedview25"
     showgrid="false"
     inkscape:snap-page="false"
     inkscape:zoom="6"
     inkscape:cx="52.602041"
     inkscape:cy="57.697279"
     inkscape:window-x="0"
     inkscape:window-y="23"
     inkscape:window-maximized="0"
     inkscape:current-layer="Calque_1" />
  <defs
     id="defs12">
    <style
       id="style10">.cls-1{fill:#fff;}.cls-2{fill:#525ca3;}</style>
  </defs>
  <path
     fill-rule="evenodd"
     clip-rule="evenodd"
     d="m 33.529659,32.725366 c 0.468486,-0.50697 1.121761,-0.794389 1.805412,-0.794389 h 39.31009 c 0.683652,0 1.336927,0.287419 1.805413,0.794389 0.468487,0.50697 0.710666,1.188425 0.669252,1.883368 l -1.249473,20.965937 c -0.07946,1.332509 -1.163806,2.37182 -2.474664,2.37182 H 36.584544 c -1.310858,0 -2.395199,-1.039311 -2.474664,-2.37182 L 32.860407,34.608734 c -0.04141,-0.694943 0.200765,-1.376398 0.669252,-1.883368 z m 4.439638,4.255188 0.948535,15.916359 h 32.144569 l 0.948535,-15.916359 z"
     fill="#525ca3"
     id="path109"
     style="stroke-width:1.06075;fill:#4d4d4d" />
  <path
     fill-rule="evenodd"
     clip-rule="evenodd"
     d="m 42.832118,52.896913 c 1.369195,0 2.479184,1.130407 2.479184,2.524789 v 46.678508 c 0,1.39438 -1.109989,2.52479 -2.479184,2.52479 -1.369196,0 -2.479185,-1.13041 -2.479185,-2.52479 V 55.421702 c 0,-1.394382 1.109989,-2.524789 2.479185,-2.524789 z"
     fill="#525ca3"
     id="path111"
     style="stroke-width:1.06075;fill:#4d4d4d" />
  <path
     fill-rule="evenodd"
     clip-rule="evenodd"
     d="m 67.148115,52.896913 c 1.369196,0 2.479184,1.130407 2.479184,2.524789 v 46.678508 c 0,1.39438 -1.109988,2.52479 -2.479184,2.52479 -1.369196,0 -2.479184,-1.13041 -2.479184,-2.52479 V 55.421702 c 0,-1.394382 1.109988,-2.524789 2.479184,-2.524789 z"
     fill="#525ca3"
     id="path113"
     style="stroke-width:1.06075;fill:#4d4d4d" />
  <path
     fill-rule="evenodd"
     clip-rule="evenodd"
     d="m 40.352933,26.194592 c 0,-1.394382 1.109989,-2.524788 2.479185,-2.524788 h 24.315997 c 1.369196,0 2.479184,1.130406 2.479184,2.524788 v 8.261174 c 0,1.394382 -1.109988,2.524788 -2.479184,2.524788 -1.369196,0 -2.479184,-1.130406 -2.479184,-2.524788 V 28.719381 H 45.311302 v 5.736385 c 0,1.394382 -1.109989,2.524788 -2.479184,2.524788 -1.369196,0 -2.479185,-1.130406 -2.479185,-2.524788 z"
     fill="#525ca3"
     id="path115"
     style="stroke-width:1.06075;fill:#4d4d4d" />
  <path
     fill-rule="evenodd"
     clip-rule="evenodd"
     d="m 55.307504,5.875 c 1.369195,0 2.479184,1.1303958 2.479184,2.5247993 V 26.194592 c 0,1.394382 -1.109989,2.524789 -2.479184,2.524789 -1.369301,0 -2.47929,-1.130407 -2.47929,-2.524789 V 8.3997993 c 0,-1.3944035 1.109989,-2.5247993 2.47929,-2.5247993 z"
     fill="#525ca3"
     id="path117"
     style="stroke-width:1.06075;fill:#4d4d4d" />
  <path
     fill-rule="evenodd"
     clip-rule="evenodd"
     d="m 81.681394,40.059949 c 0.969874,-0.984289 2.539624,-0.981506 3.506134,0.0062 1.911576,1.953484 2.984985,4.599021 2.984985,7.356955 0,2.757935 -1.073409,5.403472 -2.984985,7.356956 -0.96651,0.987714 -2.53626,0.990497 -3.506134,0.0062 -0.969873,-0.984288 -0.972501,-2.582914 -0.0063,-3.570628 0.98543,-1.006983 1.538743,-2.37075 1.538743,-3.792536 0,-1.421678 -0.553313,-2.785445 -1.538743,-3.792535 -0.966509,-0.987714 -0.963881,-2.58634 0.0063,-3.570628 z"
     fill="#525ca3"
     id="path119"
     style="stroke-width:1.06075;fill:#4d4d4d" />
  <path
     fill-rule="evenodd"
     clip-rule="evenodd"
     d="m 88.701019,34.648341 c 0.969033,-0.985145 2.538783,-0.983753 3.506134,0.0031 3.322292,3.389292 5.188249,7.982639 5.188249,12.771666 0,4.789028 -1.865957,9.382374 -5.188249,12.771667 -0.967351,0.986858 -2.537101,0.988249 -3.506134,0.0031 -0.969032,-0.985145 -0.970399,-2.583771 -0.0032,-3.570628 2.394358,-2.442577 3.739063,-5.75287 3.739063,-9.204143 0,-3.451272 -1.344705,-6.761565 -3.739063,-9.204142 -0.967351,-0.986858 -0.965984,-2.585484 0.0032,-3.570629 z"
     fill="#525ca3"
     id="path121"
     style="stroke-width:1.06075;fill:#4d4d4d" />
  <path
     fill-rule="evenodd"
     clip-rule="evenodd"
     d="m 95.561819,29.398374 c 0.968192,-0.986001 2.537942,-0.986108 3.506134,-1.07e-4 2.324357,2.367003 4.168137,5.177069 5.426127,8.269844 1.25798,3.092668 1.90537,6.407457 1.90537,9.755001 0,3.347545 -0.64739,6.662334 -1.90537,9.755002 -1.25799,3.092775 -3.10177,5.902841 -5.426127,8.269844 -0.968192,0.986001 -2.537942,0.986001 -3.506134,-1.07e-4 -0.968191,-0.986001 -0.968086,-2.584627 1.05e-4,-3.570522 1.863961,-1.898141 3.342474,-4.151567 4.351239,-6.631611 1.008767,-2.480043 1.527917,-5.138211 1.527917,-7.822606 0,-2.684394 -0.51915,-5.342562 -1.527917,-7.822605 -1.008765,-2.480044 -2.487278,-4.73347 -4.351239,-6.631504 -0.968191,-0.986002 -0.968296,-2.584628 -1.05e-4,-3.570629 z"
     fill="#525ca3"
     id="path123"
     style="stroke-width:1.06075;fill:#4d4d4d" />
  <path
     fill-rule="evenodd"
     clip-rule="evenodd"
     d="m 28.327639,40.069154 c 0.964933,0.98932 0.959573,2.587946 -0.01188,3.570629 -0.490035,0.495516 -0.878951,1.085019 -1.144255,1.734361 -0.26541,0.649341 -0.402056,1.345676 -0.402056,2.048968 0,0.703293 0.136646,1.399735 0.402056,2.048969 0.265304,0.649342 0.65422,1.238844 1.144255,1.734468 0.97145,0.982576 0.97681,2.581202 0.01188,3.570521 -0.964828,0.98932 -2.534578,0.99478 -3.506028,0.0122 -0.954107,-0.965021 -1.711232,-2.112554 -2.22786,-3.376769 -0.516628,-1.264214 -0.782668,-2.620059 -0.782668,-3.989393 0,-1.369333 0.26604,-2.725178 0.782668,-3.989285 0.516628,-1.264215 1.273753,-2.411855 2.22786,-3.376876 0.97145,-0.982576 2.5412,-0.977116 3.506028,0.0122 z"
     fill="#525ca3"
     id="path125"
     style="stroke-width:1.06075;fill:#4d4d4d" />
  <path
     fill-rule="evenodd"
     clip-rule="evenodd"
     d="m 21.3036,34.652944 c 0.966509,0.987715 0.963776,2.586341 -0.0063,3.570629 -1.18882,1.206623 -2.132205,2.640292 -2.775914,4.219007 -0.643604,1.578608 -0.974919,3.271221 -0.974919,4.980532 0,1.709312 0.331315,3.401925 0.974919,4.980533 0.643709,1.578715 1.587094,3.012383 2.775914,4.219007 0.969873,0.984288 0.972606,2.582914 0.0063,3.570628 -0.966507,0.987715 -2.536153,0.990498 -3.506026,0.0062 -1.651213,-1.675699 -2.961335,-3.66697 -3.855212,-5.859381 -0.893972,-2.19241 -1.354123,-4.543035 -1.354123,-6.916996 0,-2.37396 0.460151,-4.724478 1.354123,-6.916995 0.893877,-2.192411 2.203999,-4.183575 3.855212,-5.859381 0.969873,-0.984182 2.539519,-0.981506 3.506026,0.0062 z"
     fill="#525ca3"
     id="path127"
     style="stroke-width:1.06075;fill:#4d4d4d" />
  <path
     fill-rule="evenodd"
     clip-rule="evenodd"
     d="m 14.438178,29.398374 c 0.968191,0.986001 0.968191,2.584627 -1.05e-4,3.570629 -1.863877,1.898034 -3.342421,4.15146 -4.351176,6.631504 -1.0087546,2.480043 -1.5279579,5.138211 -1.5279579,7.822605 0,2.684395 0.5192033,5.342563 1.5279579,7.822606 1.008744,2.480044 2.487299,4.73347 4.351176,6.631611 0.968296,0.985895 0.968296,2.584521 1.05e-4,3.570522 -0.968192,0.986108 -2.537879,0.986108 -3.506092,1.07e-4 C 8.6077113,63.080955 6.7639114,60.270889 5.5059561,57.178114 4.2480114,54.085446 3.6005497,50.770657 3.6005497,47.423112 c 0,-3.347544 0.6474617,-6.662333 1.9054064,-9.755001 1.2579553,-3.092775 3.1017552,-5.902841 5.4261299,-8.269844 0.968213,-0.986001 2.5379,-0.985894 3.506092,1.07e-4 z"
     fill="#525ca3"
     id="path129"
     style="stroke-width:1.06075;fill:#4d4d4d" />
</svg>
