<?xml version="1.0" encoding="UTF-8" standalone="no"?>
<svg
   xmlns:dc="http://purl.org/dc/elements/1.1/"
   xmlns:cc="http://creativecommons.org/ns#"
   xmlns:rdf="http://www.w3.org/1999/02/22-rdf-syntax-ns#"
   xmlns:svg="http://www.w3.org/2000/svg"
   xmlns="http://www.w3.org/2000/svg"
   xmlns:sodipodi="http://sodipodi.sourceforge.net/DTD/sodipodi-0.dtd"
   xmlns:inkscape="http://www.inkscape.org/namespaces/inkscape"
   id="Calque_1"
   data-name="Calque 1"
   viewBox="0 0 110 110"
   version="1.1"
   sodipodi:docname="glisten3.svg"
   inkscape:version="1.0.1 (c497b03c, 2020-09-10)">
  <style
     id="style10" />
  <metadata
     id="metadata27">
    <rdf:RDF>
      <cc:Work
         rdf:about="">
        <dc:format>image/svg+xml</dc:format>
        <dc:type
           rdf:resource="http://purl.org/dc/dcmitype/StillImage" />
        <dc:title></dc:title>
      </cc:Work>
    </rdf:RDF>
  </metadata>
  <sodipodi:namedview
     pagecolor="#ffffff"
     bordercolor="#666666"
     borderopacity="1"
     objecttolerance="10"
     gridtolerance="10"
     guidetolerance="10"
     inkscape:pageopacity="0"
     inkscape:pageshadow="2"
     inkscape:window-width="1561"
     inkscape:window-height="1080"
     id="namedview25"
     showgrid="false"
     inkscape:snap-page="false"
     inkscape:zoom="4.6407791"
     inkscape:cx="70.079924"
     inkscape:cy="84.034672"
     inkscape:window-x="81"
     inkscape:window-y="101"
     inkscape:window-maximized="0"
     inkscape:current-layer="Calque_1"
     inkscape:document-rotation="0" />
  <defs
     id="defs12">
    <marker
       style="overflow:visible"
       id="Arrow1Lstart"
       refX="0.0"
       refY="0.0"
       orient="auto"
       inkscape:stockid="Arrow1Lstart"
       inkscape:isstock="true">
      <path
         transform="scale(0.8) translate(12.5,0)"
         style="fill-rule:evenodd;stroke:#4d4d4d;stroke-width:1pt;stroke-opacity:1;fill:#4d4d4d;fill-opacity:1"
         d="M 0.0,0.0 L 5.0,-5.0 L -12.5,0.0 L 5.0,5.0 L 0.0,0.0 z "
         id="path1575" />
    </marker>
    <style
       id="style14">.cls-1{fill:#fff;}.cls-2{fill:#525ca3;}</style>
  </defs>
  <path
     d="M 94.242366,5 16.590967,5.1666667 C 11.245029,5.1781409 5.3453849,11.077393 5.3333334,17.257634 L 5.1666667,102.72721 c -0.00179,0.91895 0.5548288,1.74886 1.4026259,2.09957 C 6.8490507,104.94439 7.1462804,105 7.4392487,105 c 0.5904111,0 1.1718733,-0.23075 1.606958,-0.66584 L 19.107681,96.272689 h 74.301353 c 6.178238,0 11.938916,-5.576287 11.924306,-11.590969 L 105.16667,16.090967 C 104.83312,10.24372 100.08582,4.9874579 94.242366,5 Z m 6.545384,79.68172 c 0.16666,3.672346 -3.869143,6.869312 -7.378716,6.878711 L 31.16656,91.727099 c 0,0 -12.80218,-0.209561 -13.273624,0.165837 L 9.7120438,98.40716 9.8787104,17.257634 c 0.0072,-3.506011 3.2056426,-7.5378513 6.7120436,-7.5453773 L 94.242153,9.5455902 c 3.507653,-0.00753 6.370997,3.3730428 6.378707,6.5453768 z"
     id="path924"
     style="fill:#4d4d4d;stroke:#4d4d4d;stroke-width:0.213068;stroke-opacity:1"
     sodipodi:nodetypes="sssscsscsscscscscssssc" />
  <g
     id="g940"
     transform="matrix(0.21306788,0,0,0.21306788,5.1666667,5)"
     style="stroke:#4d4d4d;stroke-opacity:1;fill:#4d4d4d" />
  <g
     id="g942"
     transform="matrix(0.21306788,0,0,0.21306788,5.1666667,5)"
     style="stroke:#4d4d4d;stroke-opacity:1;fill:#4d4d4d" />
  <g
     id="g944"
     transform="matrix(0.21306788,0,0,0.21306788,5.1666667,5)"
     style="stroke:#4d4d4d;stroke-opacity:1;fill:#4d4d4d" />
  <g
     id="g946"
     transform="matrix(0.21306788,0,0,0.21306788,5.1666667,5)"
     style="stroke:#4d4d4d;stroke-opacity:1;fill:#4d4d4d" />
  <g
     id="g948"
     transform="matrix(0.21306788,0,0,0.21306788,5.1666667,5)"
     style="stroke:#4d4d4d;stroke-opacity:1;fill:#4d4d4d" />
  <g
     id="g950"
     transform="matrix(0.21306788,0,0,0.21306788,5.1666667,5)"
     style="stroke:#4d4d4d;stroke-opacity:1;fill:#4d4d4d" />
  <g
     id="g952"
     transform="matrix(0.21306788,0,0,0.21306788,5.1666667,5)"
     style="stroke:#4d4d4d;stroke-opacity:1;fill:#4d4d4d" />
  <g
     id="g954"
     transform="matrix(0.21306788,0,0,0.21306788,5.1666667,5)"
     style="stroke:#4d4d4d;stroke-opacity:1;fill:#4d4d4d" />
  <g
     id="g956"
     transform="matrix(0.21306788,0,0,0.21306788,5.1666667,5)"
     style="stroke:#4d4d4d;stroke-opacity:1;fill:#4d4d4d" />
  <g
     id="g958"
     transform="matrix(0.21306788,0,0,0.21306788,5.1666667,5)"
     style="stroke:#4d4d4d;stroke-opacity:1;fill:#4d4d4d" />
  <g
     id="g960"
     transform="matrix(0.21306788,0,0,0.21306788,5.1666667,5)"
     style="stroke:#4d4d4d;stroke-opacity:1;fill:#4d4d4d" />
  <g
     id="g962"
     transform="matrix(0.21306788,0,0,0.21306788,5.1666667,5)"
     style="stroke:#4d4d4d;stroke-opacity:1;fill:#4d4d4d" />
  <g
     id="g964"
     transform="matrix(0.21306788,0,0,0.21306788,5.1666667,5)"
     style="stroke:#4d4d4d;stroke-opacity:1;fill:#4d4d4d" />
  <g
     id="g966"
     transform="matrix(0.21306788,0,0,0.21306788,5.1666667,5)"
     style="stroke:#4d4d4d;stroke-opacity:1;fill:#4d4d4d" />
  <g
     id="g968"
     transform="matrix(0.21306788,0,0,0.21306788,5.1666667,5)"
     style="stroke:#4d4d4d;stroke-opacity:1;fill:#4d4d4d" />
  <path
     d="m 71.068801,24.763426 c -6.200045,4.71e-4 -13.122172,5.36396 -14.955394,10.469839 -1.632548,-5.105879 -8.75535,-10.469347 -14.955386,-10.469839 -9.482894,0 -17.171003,7.993472 -17.171003,16.611235 0,21.644957 32.126389,36.74608 32.126389,36.74608 0,0 32.126388,-15.101123 32.126388,-36.74608 0,-8.617763 -7.688109,-16.611235 -17.170994,-16.611235 z"
     fill="#ff6243"
     id="path987"
     style="stroke-width:0.132007"
     sodipodi:nodetypes="cccscsc" />
</svg>
