<?xml version="1.0" encoding="UTF-8" standalone="no"?>
<svg
   xmlns:dc="http://purl.org/dc/elements/1.1/"
   xmlns:cc="http://creativecommons.org/ns#"
   xmlns:rdf="http://www.w3.org/1999/02/22-rdf-syntax-ns#"
   xmlns:svg="http://www.w3.org/2000/svg"
   xmlns="http://www.w3.org/2000/svg"
   xmlns:sodipodi="http://sodipodi.sourceforge.net/DTD/sodipodi-0.dtd"
   xmlns:inkscape="http://www.inkscape.org/namespaces/inkscape"
   id="Calque_1"
   data-name="Calque 1"
   viewBox="0 0 110 110"
   version="1.1"
   sodipodi:docname="MobileSupervisor.svg"
   inkscape:version="1.0.1 (c497b03c, 2020-09-10)">
  <style
     id="style416" />
  <metadata
     id="metadata27">
    <rdf:RDF>
      <cc:Work
         rdf:about="">
        <dc:format>image/svg+xml</dc:format>
        <dc:type
           rdf:resource="http://purl.org/dc/dcmitype/StillImage" />
        <dc:title />
      </cc:Work>
    </rdf:RDF>
  </metadata>
  <sodipodi:namedview
     pagecolor="#ffffff"
     bordercolor="#666666"
     borderopacity="1"
     objecttolerance="10"
     gridtolerance="10"
     guidetolerance="10"
     inkscape:pageopacity="0"
     inkscape:pageshadow="2"
     inkscape:window-width="1561"
     inkscape:window-height="1080"
     id="namedview25"
     showgrid="false"
     inkscape:snap-page="false"
     inkscape:zoom="6"
     inkscape:cx="43.59366"
     inkscape:cy="50.030613"
     inkscape:window-x="996"
     inkscape:window-y="167"
     inkscape:window-maximized="0"
     inkscape:current-layer="Calque_1"
     inkscape:document-rotation="0" />
  <defs
     id="defs12">
    <style
       id="style10">.cls-1{fill:#fff;}.cls-2{fill:#525ca3;}</style>
  </defs>
  <path
     fill-rule="evenodd"
     clip-rule="evenodd"
     d="m 18.880436,15.164911 c 1.630874,-1.637249 3.842826,-2.557027 6.149249,-2.557027 h 12.915244 v 5.402375 H 25.029685 c -0.879168,0 -1.722347,0.350655 -2.344019,0.974758 -0.621673,0.624103 -0.970963,1.470578 -0.970963,2.353183 v 76.519959 c 0,0.882605 0.34929,1.72908 0.970963,2.353181 0.621672,0.62399 1.464851,0.97465 2.344019,0.97465 h 40.145137 c 0.879168,0 1.722347,-0.35066 2.34402,-0.97465 0.621673,-0.624101 0.970855,-1.470576 0.970855,-2.353181 V 53.126066 h 5.381369 v 44.732093 c 0,2.315331 -0.916121,4.535931 -2.546995,6.173181 -1.630981,1.63735 -3.842932,2.55706 -6.149249,2.55706 H 25.029685 c -2.306423,0 -4.518375,-0.91971 -6.149249,-2.55706 -1.630874,-1.63725 -2.547103,-3.85785 -2.547103,-6.173181 V 21.3382 c 0,-2.31544 0.916229,-4.536039 2.547103,-6.173289 z"
     fill="#525ca3"
     id="path392"
     style="stroke-width:1.0732;fill:#4d4d4d" />
  <path
     fill-rule="evenodd"
     clip-rule="evenodd"
     d="M 37.945036,30.090162 H 19.045602 v -5.402515 h 18.899434 z"
     fill="#525ca3"
     id="path394"
     style="stroke-width:1.0732;fill:#4d4d4d" />
  <path
     fill-rule="evenodd"
     clip-rule="evenodd"
     d="M 71.180435,91.504866 H 19.045602 v -5.402407 h 52.134833 z"
     fill="#525ca3"
     id="path396"
     style="stroke-width:1.0732;fill:#4d4d4d" />
  <path
     fill-rule="evenodd"
     clip-rule="evenodd"
     d="M 50.128389,98.549576 H 40.097541 v -5.402407 h 10.030848 z"
     fill="#525ca3"
     id="path398"
     style="stroke-width:1.0732;fill:#4d4d4d" />
  <path
     d="m 58.609554,27.388904 c 1.604846,0 2.905924,-1.306165 2.905924,-2.917284 0,-1.611228 -1.301078,-2.917285 -2.905924,-2.917285 -1.604953,0 -2.906032,1.306057 -2.906032,2.917285 0,1.611119 1.301079,2.917284 2.906032,2.917284 z"
     fill="#525ca3"
     stroke="#525ca3"
     stroke-width="1.07838"
     stroke-miterlimit="10"
     id="path400"
     style="fill:#4d4d4d;stroke:#4d4d4d;stroke-opacity:1" />
  <path
     d="m 69.975007,27.388904 c 1.604953,0 2.905924,-1.306165 2.905924,-2.917284 0,-1.611228 -1.300971,-2.917285 -2.905924,-2.917285 -1.604953,0 -2.905925,1.306057 -2.905925,2.917285 0,1.611119 1.300972,2.917284 2.905925,2.917284 z"
     fill="#525ca3"
     stroke="#525ca3"
     stroke-width="1.07838"
     stroke-miterlimit="10"
     id="path402"
     style="fill:#4d4d4d;stroke:#4d4d4d;stroke-opacity:1" />
  <path
     d="m 81.31893,27.388904 c 1.604953,0 2.905925,-1.306165 2.905925,-2.917284 0,-1.611228 -1.300972,-2.917285 -2.905925,-2.917285 -1.604845,0 -2.905924,1.306057 -2.905924,2.917285 0,1.611119 1.301079,2.917284 2.905924,2.917284 z"
     fill="#525ca3"
     stroke="#525ca3"
     stroke-width="1.07838"
     stroke-miterlimit="10"
     id="path404"
     style="fill:#4d4d4d;stroke:#4d4d4d;stroke-opacity:1" />
  <path
     fill-rule="evenodd"
     clip-rule="evenodd"
     d="m 53.615606,46.383837 0.08569,-6.482867 h -3.314553 c -0.159381,0 -0.314585,-0.01742 -0.464112,-0.05043 -0.965714,-0.213016 -1.688393,-1.077126 -1.688393,-2.110596 v -25.93162 c 0,-1.193463 0.963679,-2.1609729 2.152505,-2.1609729 h 38.745945 c 1.188826,0 2.152612,0.9674999 2.152612,2.1609729 v 25.931618 c 0,1.193474 -0.963786,2.161028 -2.152612,2.161028 H 60.19587 Z m 8.779683,-1.08046 h 26.737397 c 4.160945,0 7.533981,-3.38633 7.533981,-7.563435 V 11.808324 c 0,-4.1771468 -3.373036,-7.5633907 -7.533981,-7.5633907 H 50.386741 c -4.160838,0 -7.533874,3.3862546 -7.533874,7.5633907 v 25.931618 c 0,3.432783 2.278039,6.331465 5.399257,7.255469 l -0.01746,1.316703 c -0.02892,2.188663 1.260483,4.17861 3.265389,5.039171 2.004799,0.860454 4.328681,0.421517 5.884792,-1.111643 z"
     fill="#525ca3"
     id="path406"
     style="stroke-width:1.0732;fill:#4d4d4d" />
</svg>
