<?xml version="1.0" encoding="UTF-8" standalone="no"?>
<svg
   xmlns:dc="http://purl.org/dc/elements/1.1/"
   xmlns:cc="http://creativecommons.org/ns#"
   xmlns:rdf="http://www.w3.org/1999/02/22-rdf-syntax-ns#"
   xmlns:svg="http://www.w3.org/2000/svg"
   xmlns="http://www.w3.org/2000/svg"
   xmlns:sodipodi="http://sodipodi.sourceforge.net/DTD/sodipodi-0.dtd"
   xmlns:inkscape="http://www.inkscape.org/namespaces/inkscape"
   id="Calque_1"
   data-name="Calque 1"
   viewBox="0 0 110 110"
   version="1.1"
   sodipodi:docname="plant-connectivity-white.svg"
   inkscape:version="1.0.1 (c497b03c, 2020-09-10)">
  <style
     id="style416" />
  <metadata
     id="metadata27">
    <rdf:RDF>
      <cc:Work
         rdf:about="">
        <dc:format>image/svg+xml</dc:format>
        <dc:type
           rdf:resource="http://purl.org/dc/dcmitype/StillImage" />
        <dc:title></dc:title>
      </cc:Work>
    </rdf:RDF>
  </metadata>
  <sodipodi:namedview
     pagecolor="#ffffff"
     bordercolor="#666666"
     borderopacity="1"
     objecttolerance="10"
     gridtolerance="10"
     guidetolerance="10"
     inkscape:pageopacity="0"
     inkscape:pageshadow="2"
     inkscape:window-width="1561"
     inkscape:window-height="1080"
     id="namedview25"
     showgrid="false"
     inkscape:snap-page="false"
     inkscape:zoom="6"
     inkscape:cx="34.010327"
     inkscape:cy="49.197279"
     inkscape:window-x="0"
     inkscape:window-y="23"
     inkscape:window-maximized="0"
     inkscape:current-layer="Calque_1"
     inkscape:document-rotation="0" />
  <defs
     id="defs12">
    <style
       id="style10">.cls-1{fill:#fff;}.cls-2{fill:#525ca3;}</style>
  </defs>
  <g
     id="g2006"
     transform="matrix(1.9266396,0,0,2.0691773,-20.633059,-36.517709)"
     style="fill:#4d4d4d">
    <path
       class="cls-2"
       d="m 53.123334,46.943333 a 1.25,1.25 0 0 0 -1.12,-0.18 l -6.739999,2.15 v -1.33 a 1.26,1.26 0 0 0 -1.67,-1.18 l -6.68,2.36 -0.46,-10.08 a 1.26,1.26 0 0 0 -1.25,-1.19 h -5.24 a 1.25,1.25 0 0 0 -1.25,1.19 l -1,23 a 1.25,1.25 0 0 0 1.25,1.31 h 23.419999 a 1.25,1.25 0 0 0 1.25,-1.25 v -13.79 a 1.25,1.25 0 0 0 -0.51,-1.01 z m -22.879999,13.52 0.91,-20.47 h 2.85 l 0.94,20.47 z m 20.889999,0 H 37.453335 l -0.42,-9.09 5.73,-2 v 1.27 a 1.26,1.26 0 0 0 0.51,1 1.27,1.27 0 0 0 1.12,0.18 l 6.739999,-2.15 z"
       id="path1963"
       style="fill:#4d4d4d" />
    <path
       class="cls-2"
       d="m 60.343334,37.723333 a 12,12 0 0 0 -21.419999,-7.42 11.88,11.88 0 0 0 -5.26,-1.23 12,12 0 0 0 -12,11.15 12,12 0 0 0 -8.130001,7.38 1.25,1.25 0 0 0 1.17,1.69 h 8.260001 a 1.25,1.25 0 0 0 0,-2.5 h -6.29 a 9.47,9.47 0 0 1 6.45,-4.32 1.26,1.26 0 0 0 1,-1.26 v -0.14 a 9.49,9.49 0 0 1 14.48,-8.08 1.25,1.25 0 0 0 1.71,-0.38 9.49,9.49 0 0 1 17.529999,5.12 c 0,0.12 0,0.23 0,0.35 v 0.26 a 1.24,1.24 0 0 0 0.69,1.21 7.58,7.58 0 0 1 4.27,6.85 v 0.43 h -5.63 a 1.25,1.25 0 0 0 0,2.5 h 6.83 a 1.25,1.25 0 0 0 1.25,-1.25 v -1.68 a 10.06,10.06 0 0 0 -4.91,-8.68 z"
       id="path1965"
       style="fill:#4d4d4d" />
  </g>
</svg>
