<?xml version="1.0" encoding="UTF-8" standalone="no"?>
<svg
   xmlns:dc="http://purl.org/dc/elements/1.1/"
   xmlns:cc="http://creativecommons.org/ns#"
   xmlns:rdf="http://www.w3.org/1999/02/22-rdf-syntax-ns#"
   xmlns:svg="http://www.w3.org/2000/svg"
   xmlns="http://www.w3.org/2000/svg"
   xmlns:sodipodi="http://sodipodi.sourceforge.net/DTD/sodipodi-0.dtd"
   xmlns:inkscape="http://www.inkscape.org/namespaces/inkscape"
   id="Calque_1"
   data-name="Calque 1"
   viewBox="0 0 110 110"
   version="1.1"
   sodipodi:docname="spc-white.svg"
   inkscape:version="1.0.1 (c497b03c, 2020-09-10)">
  <style
     id="style262" />
  <metadata
     id="metadata27">
    <rdf:RDF>
      <cc:Work
         rdf:about="">
        <dc:format>image/svg+xml</dc:format>
        <dc:type
           rdf:resource="http://purl.org/dc/dcmitype/StillImage" />
      </cc:Work>
    </rdf:RDF>
  </metadata>
  <sodipodi:namedview
     pagecolor="#ffffff"
     bordercolor="#666666"
     borderopacity="1"
     objecttolerance="10"
     gridtolerance="10"
     guidetolerance="10"
     inkscape:pageopacity="0"
     inkscape:pageshadow="2"
     inkscape:window-width="1561"
     inkscape:window-height="1080"
     id="namedview25"
     showgrid="false"
     inkscape:snap-page="false"
     inkscape:zoom="6"
     inkscape:cx="54.102041"
     inkscape:cy="56.197279"
     inkscape:window-x="-4"
     inkscape:window-y="57"
     inkscape:window-maximized="0"
     inkscape:current-layer="Calque_1"
     inkscape:document-rotation="0" />
  <defs
     id="defs12">
    <style
       id="style10">.cls-1{fill:#fff;}.cls-2{fill:#525ca3;}</style>
  </defs>
  <rect
     class="cls-1"
     x="2.1833332"
     y="2.3499999"
     width="105.3"
     height="105.3"
     rx="14.04"
     id="rect14"
     style="stroke-width:1.56" />
  <g
     id="g47"
     transform="matrix(1.2587955,0,0,1.2581575,-14.391992,-19.287132)"
     style="fill:#4d4d4d">
    <path
       class="cls-2"
       d="m 62.1604,55.3744 a 17.0196,17.0196 0 1 0 -27.0972,4.68 L 23.4724,83.6104 A 1.9344,1.9344 0 0 0 24.3616,86.2 l 5.8656,2.886 a 1.9344,1.9344 0 0 0 2.6052,-0.8892 l 11.6064,-23.556 a 16.0056,16.0056 0 0 0 2.4336,0.2028 17.16,17.16 0 0 0 5.5068,-0.9204 16.8792,16.8792 0 0 0 9.7812,-8.5488 z M 30.196,84.7804 27.8248,83.6104 38.23,62.488 a 10.374,10.374 0 0 0 1.1544,0.6396 11.8404,11.8404 0 0 0 1.2168,0.5148 z M 41.116,59.6332 A 13.104,13.104 0 1 1 58.6816,53.6584 13.104,13.104 0 0 1 41.1004,59.68 Z"
       id="path16"
       style="stroke-width:1.56;fill:#4d4d4d" />
    <path
       class="cls-2"
       d="M 46.8412,42.3172 A 3.4788,3.4788 0 0 0 41.974,41.3656 l -4.134,2.8236 a 1.95,1.95 0 0 0 2.184,3.2292 L 43.8616,44.8132 50.6164,55 a 1.9656,1.9656 0 0 0 2.6988,0.5616 1.9656,1.9656 0 0 0 0.5616,-2.7144 z"
       id="path18"
       style="stroke-width:1.56;fill:#4d4d4d" />
    <path
       class="cls-2"
       d="m 27.4192,53.5804 a 1.9344,1.9344 0 0 0 -2.6988,-0.5148 l -10.1244,6.864 a 1.95,1.95 0 0 0 1.1076,3.5568 2.028,2.028 0 0 0 1.092,-0.3276 L 26.92,56.2948 a 1.95,1.95 0 0 0 0.4992,-2.7144 z"
       id="path20"
       style="stroke-width:1.56;fill:#4d4d4d" />
    <path
       class="cls-2"
       d="m 82.4404,39.5248 a 1.9509514,1.9509514 0 1 0 0.858,3.8064 L 88.8832,42.0988 63.0652,68.728 60.8188,65.3428 A 1.95,1.95 0 1 0 57.574,67.48 l 2.7144,4.1028 a 3.12,3.12 0 0 0 2.3868,1.4508 h 0.2808 a 3.2292,3.2292 0 0 0 2.3088,-0.9984 L 92.284,44.1892 v 5.6004 a 1.95,1.95 0 0 0 3.9,0 V 36.4828 Z"
       id="path22"
       style="stroke-width:1.56;fill:#4d4d4d" />
  </g>
</svg>
