<?xml version="1.0" encoding="iso-8859-1"?>
<!-- Generator: Adobe Illustrator 19.0.0, SVG Export Plug-In . SVG Version: 6.00 Build 0)  -->
<svg version="1.1" id="Layer_1" xmlns="http://www.w3.org/2000/svg" xmlns:xlink="http://www.w3.org/1999/xlink" x="0px" y="0px"
	 viewBox="0 0 512 512" style="enable-background:new 0 0 512 512;" xml:space="preserve">
<path style="fill:#1E0478;" d="M512,58.816v21.287c0,12.639-10.288,22.939-22.939,22.939h-3.108v257.801
	c0,12.639-10.3,22.939-22.939,22.939H267.47v33.663l84.989,62.337c5.115,3.751,6.217,10.93,2.466,16.034
	c-2.248,3.062-5.723,4.691-9.256,4.691c-2.351,0-4.725-0.723-6.767-2.225L267.47,445.89v43.148c0,6.331-5.138,11.47-11.47,11.47
	c-6.331,0-11.47-5.138-11.47-11.47V445.89l-71.432,52.393c-5.104,3.739-12.284,2.638-16.023-2.466
	c-3.751-5.104-2.649-12.284,2.466-16.034l84.989-62.337v-33.663H48.986c-12.639,0-22.939-10.3-22.939-22.939V103.042h-3.108
	C10.288,103.042,0,92.743,0,80.103V58.816c0-12.651,10.288-22.939,22.939-22.939H244.53V22.962c0-6.331,5.138-11.47,11.47-11.47
	c6.331,0,11.47,5.138,11.47,11.47v12.915h221.591C501.712,35.877,512,46.165,512,58.816z M489.061,80.103V58.816H22.939v21.287
	H489.061z M463.014,360.843V103.042H48.986v257.801H463.014z"/>
<rect x="22.939" y="58.816" style="fill:#94E7EF;" width="466.122" height="21.287"/>
<path style="fill:#FFFFFF;" d="M463.014,103.042v257.801H48.986V103.042H463.014z M355.59,236.054
	c0-55.031-44.777-99.808-99.808-99.808c-5.7,0-10.323,4.622-10.323,10.323v79.163h-79.163c-5.7,0-10.323,4.622-10.323,10.323
	c0,55.031,44.777,99.808,99.808,99.808S355.59,291.085,355.59,236.054z M231.168,201.118v-65.227c0-5.7-4.622-10.323-10.323-10.323
	c-41.657,0-75.538,33.892-75.538,75.55c0,5.7,4.622,10.323,10.323,10.323h65.216C226.546,211.441,231.168,206.819,231.168,201.118z"
	/>
<path style="fill:#1E0478;" d="M255.782,136.247c55.031,0,99.808,44.777,99.808,99.808s-44.777,99.808-99.808,99.808
	s-99.808-44.777-99.808-99.808c0-5.7,4.622-10.323,10.323-10.323h79.163v-79.163C245.46,140.869,250.082,136.247,255.782,136.247z
	 M334.945,236.054c0-40.155-30.05-73.417-68.84-78.486v78.486c0,5.7-4.622,10.323-10.323,10.323h-78.486
	c5.07,38.79,38.331,68.84,78.486,68.84C299.435,315.217,334.945,279.708,334.945,236.054z"/>
<path style="fill:#6F7CCD;" d="M266.105,157.568c38.79,5.07,68.84,38.331,68.84,78.486c0,43.653-35.51,79.163-79.163,79.163
	c-40.155,0-73.417-30.05-78.486-68.84h78.486c5.7,0,10.323-4.622,10.323-10.323V157.568L266.105,157.568z"/>
<path style="fill:#1E0478;" d="M231.168,135.891v65.227c0,5.7-4.622,10.323-10.323,10.323H155.63c-5.7,0-10.323-4.622-10.323-10.323
	c0-41.657,33.881-75.55,75.538-75.55C226.546,125.568,231.168,130.191,231.168,135.891z M210.523,190.796v-43.607
	c-22.01,4.209-39.398,21.597-43.596,43.607H210.523z"/>
<path style="fill:#9B8CCC;" d="M210.523,147.189v43.607h-43.596C171.125,168.786,188.513,151.398,210.523,147.189z"/>
<g>
</g>
<g>
</g>
<g>
</g>
<g>
</g>
<g>
</g>
<g>
</g>
<g>
</g>
<g>
</g>
<g>
</g>
<g>
</g>
<g>
</g>
<g>
</g>
<g>
</g>
<g>
</g>
<g>
</g>
</svg>
